<?xml version="1.0" ?><svg id="Layer_1" style="enable-background:new 0 0 595.3 595.3;" version="1.1" viewBox="0 0 595.3 595.3" xml:space="preserve" xmlns="http://www.w3.org/2000/svg" xmlns:xlink="http://www.w3.org/1999/xlink"><style type="text/css">
	.st0{fill:#58595B;}
	.st1{fill:#3A1811;}
	.st2{fill:#726658;}
	.st3{fill:#0DB4E7;}
	.st4{fill:#009DD4;}
	.st5{fill:#009444;}
	.st6{fill:#FBB040;}
	.st7{fill:#EFF8F5;}
	.st8{fill:#D81F26;}
	.st9{fill:#BCBEC0;}
	.st10{fill:#735032;}
	.st11{fill:#1C75BC;}
	.st12{fill:#FFD128;}
	.st13{fill:#D1AE23;}
	.st14{fill:#F9ED32;}
	.st15{fill:#939598;}
	.st16{fill:#9B8579;}
	.st17{fill:#F1B279;}
	.st18{fill:#603913;}
	.st19{fill:#754C29;}
	.st20{fill:#8B5E3C;}
	.st21{fill:#C49A6C;}
	.st22{fill:#F7941E;}
	.st23{fill:#00AEEF;}
	.st24{fill:#FAF5AE;}
	.st25{fill:#F5F7D5;}
	.st26{fill:#7ABE90;}
	.st27{fill:#BFA863;}
	.st28{fill:#2B3990;}
	.st29{fill:#EF3824;}
	.st30{fill:#BE1E2D;}
	.st31{fill:#A67A44;}
	.st32{fill:#00A388;}
	.st33{fill:#ABE0F1;}
	.st34{fill:#594A42;}
</style><g><g><path class="st24" d="M110.4,275.8v232.5c0,6.1,5,11.1,11.1,11.1h355.6c6.1,0,11.1-5,11.1-11.1V275.8c0-0.8-0.6-1.4-1.4-1.4h-375    C111,274.4,110.4,275,110.4,275.8z"/><path class="st1" d="M477.1,524.4H121.5c-8.9,0-16.1-7.2-16.1-16.1V275.8c0-3.5,2.9-6.4,6.4-6.4h375c3.5,0,6.4,2.9,6.4,6.4v232.5    C493.2,517.2,486,524.4,477.1,524.4z M115.4,279.4v228.9c0,3.4,2.7,6.1,6.1,6.1h355.6c3.4,0,6.1-2.7,6.1-6.1V279.4H115.4z     M486.8,279.4L486.8,279.4L486.8,279.4z"/></g><g><path class="st24" d="M112.7,272l155.6-156.8c17-17.2,44.8-17.2,61.9,0L485.8,272c0.9,0.9,0.2,2.4-1,2.4H113.7    C112.5,274.4,111.9,272.9,112.7,272z"/><path class="st1" d="M484.8,279.4H113.7c-2.6,0-4.9-1.5-5.9-3.9c-1-2.4-0.5-5.1,1.4-7l155.6-156.8c9.2-9.3,21.4-14.4,34.5-14.4    s25.3,5.1,34.5,14.4l155.6,156.8c1.8,1.8,2.4,4.6,1.4,7C489.8,277.9,487.4,279.4,484.8,279.4z M112.7,272L112.7,272L112.7,272z     M122.4,269.4h353.8L326.7,118.7c-7.3-7.4-17-11.4-27.4-11.4s-20.1,4.1-27.4,11.4L122.4,269.4z"/></g><g><g><path class="st7" d="M429.4,188.1l-47.6-47.6c-0.1-0.1-0.2-0.1-0.4-0.1H168.8v348.4h261.1l-0.3-300.2     C429.5,188.4,429.5,188.2,429.4,188.1z"/><path class="st1" d="M434.8,493.7H163.8V135.4h217.6c1.5,0,2.9,0.6,3.9,1.6l47.6,47.6c1,1,1.6,2.4,1.6,3.9L434.8,493.7z      M173.8,483.7h251.1l-0.3-293.4l-45-45H173.8V483.7z"/></g><g><path class="st9" d="M428.8,187.6L382.3,141c-0.2-0.2-0.7-0.1-0.7,0.3v47h46.9C428.9,188.3,429.1,187.8,428.8,187.6z"/><path class="st1" d="M428.5,193.3h-51.9v-52c0-2.2,1.3-4.1,3.3-5c2-0.8,4.3-0.4,5.9,1.2l46.5,46.5c1.6,1.6,2,3.9,1.2,5.9     C432.7,192,430.7,193.3,428.5,193.3z M425.3,191.1C425.3,191.1,425.3,191.1,425.3,191.1L425.3,191.1z M386.6,183.3h30.8     l-30.8-30.8V183.3z M378.7,144.6C378.7,144.6,378.7,144.6,378.7,144.6L378.7,144.6z"/></g><g><path class="st1" d="M358.4,188.4H240.2c-1.4,0-2.5-1.1-2.5-2.5s1.1-2.5,2.5-2.5h118.1c1.4,0,2.5,1.1,2.5,2.5     S359.7,188.4,358.4,188.4z"/></g><g><path class="st1" d="M394,212.6H196.1c-1.4,0-2.5-1.1-2.5-2.5s1.1-2.5,2.5-2.5H394c1.4,0,2.5,1.1,2.5,2.5S395.4,212.6,394,212.6z     "/></g><g><path class="st1" d="M394,232.1H196.1c-1.4,0-2.5-1.1-2.5-2.5s1.1-2.5,2.5-2.5H394c1.4,0,2.5,1.1,2.5,2.5S395.4,232.1,394,232.1z     "/></g><g><path class="st1" d="M394,251.5H196.1c-1.4,0-2.5-1.1-2.5-2.5s1.1-2.5,2.5-2.5H394c1.4,0,2.5,1.1,2.5,2.5S395.4,251.5,394,251.5z     "/></g><g><path class="st1" d="M394,271H196.1c-1.4,0-2.5-1.1-2.5-2.5s1.1-2.5,2.5-2.5H394c1.4,0,2.5,1.1,2.5,2.5S395.4,271,394,271z"/></g><g><path class="st1" d="M394,290.4H196.1c-1.4,0-2.5-1.1-2.5-2.5s1.1-2.5,2.5-2.5H394c1.4,0,2.5,1.1,2.5,2.5S395.4,290.4,394,290.4z     "/></g><g><path class="st1" d="M394,309.9H196.1c-1.4,0-2.5-1.1-2.5-2.5s1.1-2.5,2.5-2.5H394c1.4,0,2.5,1.1,2.5,2.5S395.4,309.9,394,309.9z     "/></g><g><path class="st1" d="M394,329.3H196.1c-1.4,0-2.5-1.1-2.5-2.5s1.1-2.5,2.5-2.5H394c1.4,0,2.5,1.1,2.5,2.5S395.4,329.3,394,329.3z     "/></g><g><path class="st1" d="M394,348.8H196.1c-1.4,0-2.5-1.1-2.5-2.5s1.1-2.5,2.5-2.5H394c1.4,0,2.5,1.1,2.5,2.5S395.4,348.8,394,348.8z     "/></g><g><path class="st1" d="M394,368.2H196.1c-1.4,0-2.5-1.1-2.5-2.5s1.1-2.5,2.5-2.5H394c1.4,0,2.5,1.1,2.5,2.5S395.4,368.2,394,368.2z     "/></g><g><path class="st1" d="M394,387.6H196.1c-1.4,0-2.5-1.1-2.5-2.5s1.1-2.5,2.5-2.5H394c1.4,0,2.5,1.1,2.5,2.5S395.4,387.6,394,387.6z     "/></g><g><path class="st1" d="M394,407.1H196.1c-1.4,0-2.5-1.1-2.5-2.5s1.1-2.5,2.5-2.5H394c1.4,0,2.5,1.1,2.5,2.5S395.4,407.1,394,407.1z     "/></g><g><path class="st1" d="M394,426.5H196.1c-1.4,0-2.5-1.1-2.5-2.5s1.1-2.5,2.5-2.5H394c1.4,0,2.5,1.1,2.5,2.5S395.4,426.5,394,426.5z     "/></g><g><path class="st1" d="M394,446H196.1c-1.4,0-2.5-1.1-2.5-2.5s1.1-2.5,2.5-2.5H394c1.4,0,2.5,1.1,2.5,2.5S395.4,446,394,446z"/></g><g><path class="st1" d="M417.3,476h-25.2c-1.4,0-2.5-1.1-2.5-2.5s1.1-2.5,2.5-2.5h20.2v-97.4c0-1.4,1.1-2.5,2.5-2.5s2.5,1.1,2.5,2.5     V476z"/></g><g><path class="st1" d="M377.7,476h-53.5c-1.4,0-2.5-1.1-2.5-2.5s1.1-2.5,2.5-2.5h53.5c1.4,0,2.5,1.1,2.5,2.5S379.1,476,377.7,476z"/></g><g><path class="st1" d="M182.8,176.1c-1.4,0-2.5-1.1-2.5-2.5v-22.7h69.9c1.4,0,2.5,1.1,2.5,2.5s-1.1,2.5-2.5,2.5h-64.9v17.7     C185.3,175,184.2,176.1,182.8,176.1z"/></g><g><path class="st1" d="M414.8,352.3c-1.4,0-2.5-1.1-2.5-2.5V229.6c0-1.4,1.1-2.5,2.5-2.5s2.5,1.1,2.5,2.5v120.2     C417.3,351.2,416.2,352.3,414.8,352.3z"/></g></g><g><path class="st24" d="M315.5,396.9h-16.2h-16.2l-172.7,93v18.6c0,6,4.9,10.9,10.9,10.9h178h178c6,0,10.9-4.9,10.9-10.9v-18.6    L315.5,396.9z"/><path class="st1" d="M477.3,524.4h-356c-8.8,0-15.9-7.1-15.9-15.9v-21.6l176.4-95h35l176.4,95v21.6    C493.2,517.3,486.1,524.4,477.3,524.4z M115.4,492.9v15.6c0,3.3,2.6,5.9,5.9,5.9h356c3.3,0,5.9-2.6,5.9-5.9v-15.6l-168.9-91h-29.9    L115.4,492.9z"/></g><g><path class="st24" d="M486,276L315.5,396.9l172.7,93V277.1C488.2,276,486.9,275.3,486,276z"/><path class="st1" d="M493.2,498.3L306.1,397.5l177-125.6l0,0c2-1.4,4.5-1.6,6.6-0.5c2.1,1.1,3.5,3.3,3.5,5.7V498.3z M325,396.3    l158.2,85.2V284.1L325,396.3z M488.9,280L488.9,280C488.9,280.1,488.9,280.1,488.9,280z M486,276L486,276L486,276z"/></g><g><path class="st24" d="M112.6,276l170.5,120.9l-172.7,93V277.1C110.4,276,111.7,275.3,112.6,276z"/><path class="st1" d="M105.4,498.3V277.1c0-2.4,1.3-4.6,3.5-5.7c2.1-1.1,4.7-0.9,6.6,0.5l177,125.6L105.4,498.3z M115.4,284.1    v197.4l158.2-85.2L115.4,284.1z M109.7,280.1C109.7,280.1,109.7,280.1,109.7,280.1L109.7,280.1z"/></g><g><path class="st1" d="M474.6,457c-1.4,0-2.5-1.1-2.5-2.5V333.6c0-1.4,1.1-2.5,2.5-2.5s2.5,1.1,2.5,2.5v120.9    C477.1,455.9,476,457,474.6,457z"/></g><g><path class="st1" d="M469.3,509.4H302c-1.4,0-2.5-1.1-2.5-2.5s1.1-2.5,2.5-2.5h167.3c1.5,0,2.8-1.2,2.8-2.8v-4.9    c0-1.4,1.1-2.5,2.5-2.5s2.5,1.1,2.5,2.5v4.9C477.1,505.9,473.6,509.4,469.3,509.4z"/></g><g><path class="st1" d="M450.9,458.7c-0.4,0-0.8-0.1-1.2-0.3l-88.1-47.5c-1.2-0.7-1.7-2.2-1-3.4c0.7-1.2,2.2-1.7,3.4-1L452,454    c1.2,0.7,1.7,2.2,1,3.4C452.6,458.2,451.7,458.7,450.9,458.7z"/></g><g><path class="st1" d="M458.9,491.2c-0.4,0-0.8-0.1-1.2-0.3l-88.1-47.5c-1.2-0.7-1.7-2.2-1-3.4c0.7-1.2,2.2-1.7,3.4-1l88.1,47.5    c1.2,0.7,1.7,2.2,1,3.4C460.7,490.8,459.8,491.2,458.9,491.2z"/></g><g><path class="st1" d="M361.6,437.6c-0.4,0-0.8-0.1-1.2-0.3l-39.2-21.1c-1.2-0.7-1.7-2.2-1-3.4c0.7-1.2,2.2-1.7,3.4-1l39.2,21.1    c1.2,0.7,1.7,2.2,1,3.4C363.4,437.1,362.5,437.6,361.6,437.6z"/></g><g><path class="st1" d="M379.4,367.9c-0.8,0-1.6-0.4-2-1.1c-0.8-1.1-0.5-2.7,0.6-3.5l84.9-60.2c1.1-0.8,2.7-0.5,3.5,0.6    c0.8,1.1,0.5,2.7-0.6,3.5l-84.9,60.2C380.4,367.8,379.9,367.9,379.4,367.9z"/></g><g><path class="st1" d="M271.8,509.4H163.5c-1.4,0-2.5-1.1-2.5-2.5s1.1-2.5,2.5-2.5h108.4c1.4,0,2.5,1.1,2.5,2.5    S273.2,509.4,271.8,509.4z"/></g></g></svg>